<mxfile host="app.diagrams.net" modified="2023-05-18T13:13:47.341Z" agent="Mozilla/5.0 (Windows NT 10.0; Win64; x64) AppleWebKit/537.36 (KHTML, like Gecko) Chrome/113.0.0.0 Safari/537.36" version="21.1.4" etag="ESqHgW6rXcPPeYnYwqyi" type="github">
  <diagram name="Page-1" id="8ZfxSAALAtYzXSE9OxeX">
    <mxGraphModel>
      <root>
        <mxCell id="0" />
        <mxCell id="1" parent="0" />
      </root>
    </mxGraphModel>
  </diagram>
</mxfile>
